<svg xmlns="http://www.w3.org/2000/svg" width="512" height="512" viewBox="0 0 512 512" data-schema-version="1" data-asset-id="tree_coastal_01" data-asset-kind="tree">
 <desc>Mature broadleaf with curved trunk, scaffold branches and separated leaf masses.</desc>
 <g data-role="trunk" data-tone="shadow" fill="currentColor"><path d="M224 474 C232 420 228 366 236 318 C240 287 249 257 261 238 C271 231 281 243 282 259 C274 298 272 332 278 367 C284 408 294 448 298 474 Z"/></g>
 <g data-role="trunk" data-tone="base" fill="currentColor"><path d="M245 470 C248 405 243 349 250 302 C253 271 262 246 268 242 C272 269 262 304 263 341 C266 390 278 438 282 470 Z"/></g>
 <g data-role="branch" data-tone="shadow" fill="currentColor"><path d="M254 342 C224 306 194 277 155 253 L163 242 C207 263 239 290 264 316 Z"/><path d="M265 331 C300 290 333 263 374 242 L382 255 C342 279 309 307 272 354 Z"/><path d="M257 298 C232 262 217 227 207 188 L219 184 C231 224 247 255 268 282 Z"/><path d="M268 294 C290 255 308 222 337 190 L348 198 C321 233 300 269 276 317 Z"/></g>
 <g data-role="branch" data-tone="light" fill="currentColor"><path d="M159 252 L119 214 L127 206 L170 244 Z"/><path d="M210 195 L176 163 L184 155 L221 187 Z"/><path d="M341 196 L373 158 L382 166 L349 205 Z"/><path d="M376 248 L417 207 L426 216 L384 258 Z"/></g>
 <g data-role="foliage" data-tone="deep-shadow" fill="currentColor"><ellipse cx="91" cy="211" rx="43" ry="35"/><ellipse cx="137" cy="172" rx="49" ry="39"/><ellipse cx="190" cy="145" rx="48" ry="37"/><ellipse cx="247" cy="132" rx="51" ry="40"/><ellipse cx="305" cy="142" rx="51" ry="40"/><ellipse cx="360" cy="169" rx="49" ry="39"/><ellipse cx="410" cy="211" rx="44" ry="35"/><ellipse cx="116" cy="258" rx="52" ry="40"/><ellipse cx="177" cy="235" rx="54" ry="42"/><ellipse cx="238" cy="218" rx="56" ry="44"/><ellipse cx="301" cy="222" rx="57" ry="44"/><ellipse cx="363" cy="242" rx="54" ry="41"/><ellipse cx="404" cy="269" rx="42" ry="33"/><ellipse cx="164" cy="283" rx="49" ry="36"/><ellipse cx="223" cy="271" rx="52" ry="38"/><ellipse cx="286" cy="273" rx="52" ry="38"/><ellipse cx="346" cy="284" rx="47" ry="35"/></g>
 <g data-role="foliage" data-tone="base" fill="currentColor"><ellipse cx="99" cy="200" rx="28" ry="22"/><ellipse cx="145" cy="161" rx="31" ry="24"/><ellipse cx="197" cy="136" rx="31" ry="23"/><ellipse cx="252" cy="122" rx="33" ry="25"/><ellipse cx="308" cy="132" rx="32" ry="25"/><ellipse cx="363" cy="159" rx="31" ry="24"/><ellipse cx="409" cy="201" rx="28" ry="22"/><ellipse cx="132" cy="244" rx="34" ry="25"/><ellipse cx="190" cy="220" rx="35" ry="26"/><ellipse cx="251" cy="204" rx="37" ry="27"/><ellipse cx="315" cy="210" rx="37" ry="27"/><ellipse cx="370" cy="231" rx="34" ry="25"/></g>
 <g data-role="leaf" data-tone="light" fill="currentColor"><ellipse cx="126" cy="178" rx="16" ry="9"/><ellipse cx="181" cy="137" rx="18" ry="10"/><ellipse cx="241" cy="112" rx="19" ry="10"/><ellipse cx="301" cy="124" rx="18" ry="10"/><ellipse cx="356" cy="151" rx="18" ry="10"/><ellipse cx="397" cy="193" rx="17" ry="9"/></g>
</svg>
